<?xml version="1.0" encoding="UTF-8"?><svg id="Capa_1" xmlns="http://www.w3.org/2000/svg" viewBox="0 0 279.08 62.36"><defs><style>.cls-1{fill:#e30613;}.cls-1,.cls-2{font-size:12px;}.cls-1,.cls-2,.cls-3{font-family:Ubuntu-Light, Ubuntu;}.cls-4{fill:#e52528;}.cls-2,.cls-3{fill:#575756;}.cls-5{letter-spacing:0em;}.cls-6{letter-spacing:-.01em;}.cls-3{font-size:9px;}.cls-7{letter-spacing:-.04em;}.cls-8{letter-spacing:-.04em;}</style></defs><text class="cls-1" transform="translate(74.2 17.79)"><tspan class="cls-8" x="0" y="0">T</tspan><tspan class="cls-5" x="6.05" y="0">ecnología</tspan></text><g id="g8" transform="translate(0,-0.4)"><path id="path6" class="cls-4" d="M9.5,11.03c-.03-.45-.15-.91-.39-1.3l-2.05-3.59c-.15-.27-.27-.57-.33-.87l-.09,.15c-.51,.87-.51,1.99,0,2.87l1.66,2.87c.51,.87,.51,1.99,0,2.87l-.09,.15c-.06-.3-.18-.6-.33-.87l-1.51-2.62-.97-1.69c-.15-.27-.27-.57-.33-.87l-.09,.15c-.51,.87-.51,1.96,0,2.87h0l1.66,2.87c.51,.87,.51,1.99,0,2.87l-.09,.15c-.06-.3-.18-.6-.33-.87l-2.08-3.59c-.27-.48-.39-1.03-.39-1.57-2.2,.57-3.74,1.81-3.74,3.23,0,1.99,2.96,3.59,6.61,3.59s6.61-1.6,6.61-3.59c.03-1.36-1.48-2.59-3.71-3.17Zm6.25,6.12c.03-.51,.09-.84,.24-1.27,.69,.33,1.6,.48,2.26,.48,1.15,0,1.81-.36,1.81-1.12s-.48-1.06-1.63-1.57l-.63-.24c-1.18-.51-1.96-1.18-1.96-2.47,0-1.42,1-2.32,2.99-2.32,.81,0,1.57,.12,2.26,.36-.03,.48-.12,.87-.24,1.24-.66-.24-1.48-.36-2.05-.36-1.09,0-1.57,.42-1.57,1.09s.48,1.03,1.36,1.39l.66,.27c1.57,.66,2.23,1.39,2.23,2.59,0,1.42-1.09,2.41-3.2,2.41-1,0-1.84-.15-2.53-.48Zm12.4-5.94v6.22h-1.27l-.06-.75c-.36,.54-.87,.91-1.75,.91-1.63,0-2.75-1.21-2.75-3.29s1.18-3.44,3.47-3.44c.91,.03,1.66,.12,2.35,.36Zm-1.36,4.8v-3.89c-.27-.06-.6-.06-1-.06-1.42,0-2.08,.87-2.08,2.26,0,1.27,.51,2.17,1.72,2.17,.57-.03,1-.21,1.36-.48Zm8.36-2.75v4.16h-1.36v-3.92c0-1-.33-1.45-1.69-1.45-.33,0-.69,.03-1.09,.09v5.28h-1.36v-6.22c.87-.21,1.84-.36,2.47-.36,2.29,.03,3.02,.91,3.02,2.41Zm3.8,3.17c.39,0,.78-.06,1.06-.18-.03,.36-.09,.78-.15,1.15-.36,.15-.78,.21-1.15,.21-1.33,0-2.17-.6-2.17-2.11v-6.55c.42-.15,.94-.21,1.36-.21v2.35h2.17c-.03,.42-.06,.81-.12,1.18h-2.05v3.05c0,.78,.39,1.12,1.06,1.12Zm7.33-5.22v6.22h-1.27l-.06-.75c-.36,.54-.87,.91-1.75,.91-1.63,0-2.75-1.21-2.75-3.29s1.18-3.44,3.47-3.44c.91,.03,1.63,.12,2.35,.36h0Zm-1.39,4.8v-3.89c-.27-.06-.6-.06-1-.06-1.42,0-2.08,.87-2.08,2.26,0,1.27,.51,2.17,1.72,2.17,.57-.03,1.03-.21,1.36-.48Zm8.39-2.75v4.16h-1.39v-3.92c0-1-.33-1.45-1.69-1.45-.33,0-.69,.03-1.09,.09v5.28h-1.36v-6.22c.87-.21,1.84-.36,2.47-.36,2.29,.03,3.05,.91,3.05,2.41h0Zm6.91-4.53v8.69h-1.27l-.06-.78c-.36,.57-.87,.94-1.78,.94-1.63,0-2.75-1.21-2.75-3.29s1.18-3.44,3.47-3.44c.36,0,.69,.03,1.03,.09v-2.05c.42-.12,.91-.15,1.36-.15Zm-1.36,7.27v-3.83c-.36-.06-.72-.12-1.09-.12-1.36,0-1.99,.84-1.99,2.26,0,1.27,.51,2.17,1.72,2.17,.54-.03,1-.21,1.36-.48h0Zm8.24-1.24h-4.37c.18,1.12,.81,1.63,2.05,1.63,.75,0,1.51-.15,2.17-.48-.06,.36-.12,.84-.21,1.24-.63,.27-1.27,.39-2.02,.39-2.29,0-3.38-1.27-3.38-3.38,0-1.84,.84-3.32,3.02-3.32,1.96,0,2.81,1.27,2.81,2.84,0,.42,0,.72-.06,1.09h0Zm-4.37-1.15h3.08c0-1.03-.54-1.63-1.48-1.63-1,.03-1.51,.57-1.6,1.63Zm9.17-2.69c0,.42-.06,.91-.12,1.18-.33-.03-.63-.06-1.03-.06-.33,0-.66,.03-1,.06v5.31h-1.36v-6.22c.57-.21,1.57-.36,2.32-.36,.39,.03,.87,.03,1.18,.09Z"/></g><rect class="cls-4" x="134.59" width=".52" height="62.36"/><text class="cls-2" transform="translate(136.69 11.48)"><tspan x="0" y="0">Rangel Díaz Luis Fernando</tspan></text><text class="cls-3" transform="translate(137.77 27.7)"><tspan class="cls-6" x="0" y="0">E</tspan><tspan x="4.9" y="0">UT Control y Gestión</tspan><tspan x="0" y="10.8">luirangel@gruposantande</tspan><tspan class="cls-7" x="104.51" y="10.8">r</tspan><tspan x="107.48" y="10.8">.com.mx</tspan></text></svg>