<?xml version="1.0" encoding="UTF-8"?><svg id="Capa_1" xmlns="http://www.w3.org/2000/svg" viewBox="0 0 278.82 62.36"><defs><style>.cls-1{fill:#575756;}.cls-2{fill:#e52528;}.cls-3{fill:#e30613;}</style></defs><g><path class="cls-3" d="M80.56,9.48v.71h-2.66v7.61h-.82v-7.61h-2.66v-.71h6.14Z"/><path class="cls-3" d="M80.91,14.68c0-.54,.08-1.02,.23-1.42,.16-.4,.36-.74,.61-1.01s.54-.47,.86-.61c.32-.13,.66-.2,1-.2,.76,0,1.37,.25,1.82,.74s.68,1.26,.68,2.29c0,.06,0,.13,0,.19,0,.06,0,.12-.02,.18h-4.36c.02,.76,.21,1.34,.56,1.75s.91,.61,1.68,.61c.42,0,.76-.04,1.01-.12,.25-.08,.43-.15,.54-.2l.14,.67c-.11,.06-.32,.14-.63,.23s-.67,.13-1.09,.13c-.54,0-1.01-.08-1.39-.24-.38-.16-.7-.38-.95-.67-.25-.29-.43-.63-.54-1.03-.11-.4-.17-.83-.17-1.3Zm4.4-.49c-.02-.65-.17-1.15-.46-1.51-.29-.36-.7-.54-1.22-.54-.28,0-.53,.06-.75,.17-.22,.11-.41,.26-.58,.45-.16,.19-.29,.41-.38,.65-.09,.25-.15,.51-.16,.78h3.55Z"/><path class="cls-3" d="M90.42,17.92c-.48,0-.9-.08-1.27-.23-.37-.15-.67-.37-.92-.65-.24-.28-.43-.62-.56-1.02s-.19-.83-.19-1.31,.07-.93,.2-1.33c.13-.4,.32-.74,.57-1.03,.25-.29,.55-.51,.9-.67,.35-.16,.75-.23,1.19-.23,.34,0,.65,.03,.94,.08,.29,.06,.52,.13,.68,.22l-.21,.67c-.16-.08-.34-.14-.54-.19-.2-.05-.47-.07-.8-.07-.69,0-1.21,.22-1.56,.67-.36,.44-.54,1.07-.54,1.89,0,.37,.04,.71,.12,1.01s.21,.57,.39,.79c.18,.22,.41,.39,.7,.52,.28,.12,.63,.19,1.04,.19,.34,0,.62-.04,.85-.11s.39-.14,.5-.2l.17,.67c-.14,.08-.37,.16-.68,.23-.31,.08-.63,.11-.97,.11Z"/><path class="cls-3" d="M93.37,11.8c.23-.06,.54-.14,.94-.22,.39-.08,.87-.12,1.44-.12,.47,0,.87,.07,1.18,.2,.32,.14,.57,.33,.76,.58,.19,.25,.32,.55,.4,.91s.12,.74,.12,1.16v3.47h-.78v-3.22c0-.44-.03-.81-.09-1.12-.06-.3-.16-.55-.3-.74-.14-.19-.32-.33-.55-.41-.23-.08-.51-.13-.86-.13-.37,0-.69,.02-.95,.06-.27,.04-.44,.08-.52,.11v5.45h-.78v-5.99Z"/><path class="cls-3" d="M105.49,14.69c0,.49-.07,.93-.21,1.33-.14,.4-.34,.74-.59,1.02-.25,.28-.55,.5-.89,.65-.34,.16-.72,.23-1.14,.23s-.8-.08-1.14-.23c-.34-.16-.64-.37-.89-.65-.25-.28-.45-.62-.59-1.02-.14-.4-.21-.84-.21-1.33s.07-.93,.21-1.33c.14-.4,.34-.74,.59-1.03,.25-.28,.55-.5,.89-.66,.34-.16,.72-.23,1.14-.23s.8,.08,1.14,.23c.34,.16,.64,.38,.89,.66,.25,.28,.45,.63,.59,1.03,.14,.4,.21,.84,.21,1.33Zm-.83,0c0-.78-.18-1.39-.54-1.85-.36-.46-.85-.69-1.46-.69s-1.1,.23-1.46,.69c-.36,.46-.54,1.08-.54,1.85s.18,1.39,.54,1.85c.36,.46,.85,.68,1.46,.68s1.1-.23,1.46-.68,.54-1.07,.54-1.85Z"/><path class="cls-3" d="M108.76,17.9c-.26,0-.49-.04-.69-.1s-.36-.15-.49-.28-.23-.28-.3-.48c-.07-.2-.1-.44-.1-.74v-7.68l.78-.14v7.8c0,.19,.02,.35,.05,.46,.04,.12,.09,.21,.16,.28,.07,.07,.17,.12,.28,.15,.12,.03,.25,.06,.41,.08l-.11,.65Z"/><path class="cls-3" d="M115.54,14.69c0,.49-.07,.93-.21,1.33-.14,.4-.34,.74-.59,1.02-.25,.28-.55,.5-.89,.65-.34,.16-.72,.23-1.14,.23s-.8-.08-1.14-.23c-.34-.16-.64-.37-.89-.65-.25-.28-.45-.62-.59-1.02-.14-.4-.21-.84-.21-1.33s.07-.93,.21-1.33c.14-.4,.34-.74,.59-1.03,.25-.28,.55-.5,.89-.66,.34-.16,.72-.23,1.14-.23s.8,.08,1.14,.23c.34,.16,.64,.38,.89,.66,.25,.28,.45,.63,.59,1.03,.14,.4,.21,.84,.21,1.33Zm-.83,0c0-.78-.18-1.39-.54-1.85-.36-.46-.85-.69-1.46-.69s-1.1,.23-1.46,.69c-.36,.46-.54,1.08-.54,1.85s.18,1.39,.54,1.85c.36,.46,.85,.68,1.46,.68s1.1-.23,1.46-.68,.54-1.07,.54-1.85Z"/><path class="cls-3" d="M121.27,17.07s-.12,.09-.22,.14c-.1,.05-.21,.11-.35,.16s-.3,.1-.48,.14c-.18,.04-.38,.05-.61,.05-.36,0-.71-.06-1.04-.17-.34-.11-.63-.29-.88-.53-.25-.24-.45-.55-.61-.93-.15-.38-.23-.84-.23-1.39,0-.44,.07-.85,.2-1.22,.14-.38,.33-.7,.58-.98s.56-.49,.92-.65c.36-.16,.77-.23,1.23-.23,.58,0,1.04,.04,1.39,.11,.35,.08,.63,.15,.86,.22v5.66c0,.93-.24,1.59-.72,1.99-.48,.4-1.2,.59-2.17,.59-.4,0-.76-.03-1.09-.09s-.6-.13-.83-.21l.16-.71c.19,.09,.45,.16,.79,.23s.67,.1,1,.1c.74,0,1.27-.14,1.6-.43,.33-.28,.5-.77,.5-1.46v-.41Zm-.01-4.73c-.14-.04-.31-.08-.53-.11s-.52-.05-.92-.05c-.34,0-.63,.06-.89,.17-.26,.12-.48,.28-.67,.49-.18,.21-.32,.46-.42,.76s-.14,.61-.14,.97c0,.41,.06,.76,.17,1.05,.11,.29,.26,.53,.44,.71,.18,.18,.39,.32,.62,.4s.47,.13,.71,.13c.35,0,.67-.05,.97-.16s.52-.22,.68-.36v-4Z"/><path class="cls-3" d="M126.15,9.13l-2.05,1.67-.4-.46,1.9-1.82,.55,.61Zm-1.26,8.66h-.78v-6.2h.78v6.2Z"/><path class="cls-3" d="M128.83,11.44c.41,0,.75,.06,1.04,.17,.28,.12,.51,.28,.69,.48,.18,.2,.3,.45,.38,.73,.08,.28,.12,.58,.12,.91v3.91c-.08,.02-.2,.05-.35,.08s-.33,.06-.53,.09c-.2,.03-.42,.06-.67,.08-.24,.02-.49,.03-.75,.03-.33,0-.63-.04-.91-.11-.28-.07-.52-.19-.72-.34-.2-.16-.36-.36-.48-.6s-.17-.54-.17-.89,.06-.62,.19-.86c.13-.24,.31-.44,.54-.59,.23-.16,.51-.27,.83-.34,.32-.07,.67-.11,1.04-.11,.11,0,.23,0,.35,.02,.12,.01,.24,.03,.36,.05,.12,.02,.22,.04,.3,.06,.08,.02,.14,.04,.17,.05v-.38c0-.22-.02-.43-.05-.63-.03-.2-.1-.39-.21-.55-.11-.16-.26-.3-.46-.4-.2-.1-.45-.15-.77-.15-.46,0-.8,.03-1.02,.1-.22,.06-.39,.12-.49,.16l-.11-.68c.14-.06,.35-.12,.63-.18,.28-.06,.63-.08,1.03-.08Zm.07,5.78c.3,0,.57,0,.8-.03,.23-.02,.42-.05,.58-.08v-2.18c-.09-.04-.23-.08-.42-.13-.19-.04-.46-.07-.79-.07-.19,0-.39,.01-.6,.04-.21,.03-.4,.09-.58,.18-.18,.09-.32,.22-.43,.38-.11,.16-.17,.37-.17,.64,0,.23,.04,.43,.11,.59,.08,.16,.18,.29,.32,.38,.14,.1,.31,.17,.5,.21,.2,.04,.42,.07,.67,.07Z"/></g><path id="path6" class="cls-2" d="M9.5,11.03c-.03-.45-.15-.91-.39-1.3l-2.05-3.59c-.15-.27-.27-.57-.33-.87l-.09,.15c-.51,.87-.51,1.99,0,2.87l1.66,2.87c.51,.87,.51,1.99,0,2.87l-.09,.15c-.06-.3-.18-.6-.33-.87l-1.51-2.62-.97-1.69c-.15-.27-.27-.57-.33-.87l-.09,.15c-.51,.87-.51,1.96,0,2.87h0l1.66,2.87c.51,.87,.51,1.99,0,2.87l-.09,.15c-.06-.3-.18-.6-.33-.87l-2.08-3.59c-.27-.48-.39-1.03-.39-1.57-2.2,.57-3.74,1.81-3.74,3.23,0,1.99,2.96,3.59,6.61,3.59s6.61-1.6,6.61-3.59c.03-1.36-1.48-2.59-3.71-3.17Zm6.25,6.12c.03-.51,.09-.84,.24-1.27,.69,.33,1.6,.48,2.26,.48,1.15,0,1.81-.36,1.81-1.12s-.48-1.06-1.63-1.57l-.63-.24c-1.18-.51-1.96-1.18-1.96-2.47,0-1.42,1-2.32,2.99-2.32,.81,0,1.57,.12,2.26,.36-.03,.48-.12,.87-.24,1.24-.66-.24-1.48-.36-2.05-.36-1.09,0-1.57,.42-1.57,1.09s.48,1.03,1.36,1.39l.66,.27c1.57,.66,2.23,1.39,2.23,2.59,0,1.42-1.09,2.41-3.2,2.41-1,0-1.84-.15-2.53-.48Zm12.4-5.94v6.22h-1.27l-.06-.75c-.36,.54-.87,.91-1.75,.91-1.63,0-2.75-1.21-2.75-3.29s1.18-3.44,3.47-3.44c.91,.03,1.66,.12,2.35,.36Zm-1.36,4.8v-3.89c-.27-.06-.6-.06-1-.06-1.42,0-2.08,.87-2.08,2.26,0,1.27,.51,2.17,1.72,2.17,.57-.03,1-.21,1.36-.48Zm8.36-2.75v4.16h-1.36v-3.92c0-1-.33-1.45-1.69-1.45-.33,0-.69,.03-1.09,.09v5.28h-1.36v-6.22c.87-.21,1.84-.36,2.47-.36,2.29,.03,3.02,.91,3.02,2.41Zm3.8,3.17c.39,0,.78-.06,1.06-.18-.03,.36-.09,.78-.15,1.15-.36,.15-.78,.21-1.15,.21-1.33,0-2.17-.6-2.17-2.11v-6.55c.42-.15,.94-.21,1.36-.21v2.35h2.17c-.03,.42-.06,.81-.12,1.18h-2.05v3.05c0,.78,.39,1.12,1.06,1.12Zm7.33-5.22v6.22h-1.27l-.06-.75c-.36,.54-.87,.91-1.75,.91-1.63,0-2.75-1.21-2.75-3.29s1.18-3.44,3.47-3.44c.91,.03,1.63,.12,2.35,.36h0Zm-1.39,4.8v-3.89c-.27-.06-.6-.06-1-.06-1.42,0-2.08,.87-2.08,2.26,0,1.27,.51,2.17,1.72,2.17,.57-.03,1.03-.21,1.36-.48Zm8.39-2.75v4.16h-1.39v-3.92c0-1-.33-1.45-1.69-1.45-.33,0-.69,.03-1.09,.09v5.28h-1.36v-6.22c.87-.21,1.84-.36,2.47-.36,2.29,.03,3.05,.91,3.05,2.41h0Zm6.91-4.53v8.69h-1.27l-.06-.78c-.36,.57-.87,.94-1.78,.94-1.63,0-2.75-1.21-2.75-3.29s1.18-3.44,3.47-3.44c.36,0,.69,.03,1.03,.09v-2.05c.42-.12,.91-.15,1.36-.15Zm-1.36,7.27v-3.83c-.36-.06-.72-.12-1.09-.12-1.36,0-1.99,.84-1.99,2.26,0,1.27,.51,2.17,1.72,2.17,.54-.03,1-.21,1.36-.48h0Zm8.24-1.24h-4.37c.18,1.12,.81,1.63,2.05,1.63,.75,0,1.51-.15,2.17-.48-.06,.36-.12,.84-.21,1.24-.63,.27-1.27,.39-2.02,.39-2.29,0-3.38-1.27-3.38-3.38,0-1.84,.84-3.32,3.02-3.32,1.96,0,2.81,1.27,2.81,2.84,0,.42,0,.72-.06,1.09h0Zm-4.37-1.15h3.08c0-1.03-.54-1.63-1.48-1.63-1,.03-1.51,.57-1.6,1.63Zm9.17-2.69c0,.42-.06,.91-.12,1.18-.33-.03-.63-.06-1.03-.06-.33,0-.66,.03-1,.06v5.31h-1.36v-6.22c.57-.21,1.57-.36,2.32-.36,.39,.03,.87,.03,1.18,.09Z"/><rect class="cls-2" x="134.59" width=".52" height="62.36"/><g><path class="cls-1" d="M143.31,5.66c0,.62-.16,1.12-.49,1.48-.33,.36-.76,.62-1.3,.78,.13,.16,.29,.38,.5,.65,.2,.27,.41,.57,.63,.89,.22,.32,.43,.66,.64,1.01,.21,.35,.38,.69,.53,1.01h-.88c-.17-.32-.35-.64-.55-.96-.2-.32-.4-.63-.6-.93-.2-.3-.4-.58-.59-.83-.19-.26-.36-.48-.5-.67-.26,.02-.51,.04-.77,.04h-1.34v3.36h-.82V3.32c.29-.08,.63-.14,1.01-.17,.39-.04,.75-.05,1.07-.05,1.14,0,2.01,.22,2.59,.65,.58,.43,.87,1.07,.87,1.92Zm-3.36-1.86c-.3,0-.57,0-.8,.03-.23,.02-.42,.04-.57,.05v3.54h1.13c.38,0,.73-.02,1.07-.05,.34-.04,.63-.12,.88-.24s.44-.3,.59-.53c.14-.23,.22-.55,.22-.95,0-.37-.07-.67-.22-.91s-.33-.43-.56-.57c-.23-.14-.5-.24-.8-.29-.3-.05-.61-.08-.93-.08Z"/><path class="cls-1" d="M147.02,5.13c.41,0,.75,.06,1.04,.17,.28,.12,.51,.28,.69,.48,.18,.2,.3,.45,.38,.73s.12,.58,.12,.91v3.91c-.08,.02-.2,.05-.35,.08-.15,.03-.33,.06-.53,.09-.2,.03-.42,.06-.67,.08-.24,.02-.49,.03-.75,.03-.33,0-.63-.04-.91-.11-.28-.07-.52-.19-.72-.34-.2-.16-.36-.36-.48-.6-.12-.24-.17-.54-.17-.89s.06-.62,.19-.86,.31-.44,.54-.59c.23-.16,.51-.27,.83-.34,.32-.07,.67-.11,1.04-.11,.11,0,.23,0,.35,.02,.12,.01,.24,.03,.36,.05,.12,.02,.22,.04,.3,.06,.08,.02,.14,.04,.17,.05v-.38c0-.22-.02-.43-.05-.63-.03-.2-.1-.39-.21-.55-.11-.16-.26-.3-.46-.4-.2-.1-.45-.15-.77-.15-.46,0-.8,.03-1.02,.1-.22,.06-.39,.12-.49,.16l-.11-.68c.14-.06,.35-.12,.63-.18,.28-.06,.63-.08,1.03-.08Zm.07,5.78c.3,0,.57,0,.8-.03,.23-.02,.42-.05,.58-.08v-2.18c-.09-.04-.23-.08-.42-.13-.19-.04-.46-.07-.79-.07-.19,0-.39,.01-.6,.04-.21,.03-.4,.09-.58,.18-.18,.09-.32,.22-.43,.38-.11,.16-.17,.37-.17,.64,0,.23,.04,.43,.11,.59,.08,.16,.18,.29,.32,.38s.31,.17,.5,.21c.2,.04,.42,.07,.67,.07Z"/><path class="cls-1" d="M151.25,5.49c.23-.06,.54-.14,.94-.22,.39-.08,.87-.12,1.44-.12,.47,0,.87,.07,1.18,.2,.32,.14,.57,.33,.76,.58,.19,.25,.32,.55,.4,.91,.08,.35,.12,.74,.12,1.16v3.47h-.78v-3.22c0-.44-.03-.81-.09-1.12s-.16-.55-.3-.74c-.14-.19-.32-.33-.55-.41s-.51-.13-.86-.13c-.37,0-.69,.02-.95,.06s-.44,.08-.52,.11v5.45h-.78V5.49Z"/><path class="cls-1" d="M162.12,10.76s-.12,.09-.22,.14c-.1,.05-.21,.11-.35,.16s-.3,.1-.48,.14c-.18,.04-.38,.05-.61,.05-.36,0-.71-.06-1.04-.17-.34-.11-.63-.29-.88-.53s-.45-.55-.61-.93c-.15-.38-.23-.84-.23-1.39,0-.44,.07-.85,.2-1.22,.14-.38,.33-.7,.58-.98,.25-.28,.56-.49,.92-.65,.36-.16,.77-.23,1.23-.23,.58,0,1.04,.04,1.39,.11,.35,.08,.63,.15,.86,.22v5.66c0,.93-.24,1.59-.72,1.99-.48,.4-1.2,.59-2.17,.59-.4,0-.76-.03-1.09-.09-.32-.06-.6-.13-.83-.21l.16-.71c.19,.09,.45,.16,.79,.23,.33,.06,.67,.1,1,.1,.74,0,1.27-.14,1.6-.43,.33-.28,.5-.77,.5-1.46v-.41Zm-.01-4.73c-.14-.04-.31-.08-.53-.11-.22-.04-.52-.05-.92-.05-.34,0-.63,.06-.89,.17-.26,.12-.48,.28-.67,.49s-.32,.46-.42,.76c-.1,.29-.14,.61-.14,.97,0,.41,.06,.76,.17,1.05,.11,.29,.26,.53,.44,.71,.18,.18,.39,.32,.62,.4,.23,.08,.47,.13,.71,.13,.35,0,.67-.05,.97-.16,.29-.1,.52-.22,.68-.36v-4Z"/><path class="cls-1" d="M164.58,8.37c0-.54,.08-1.02,.23-1.42,.16-.4,.36-.74,.61-1.01,.25-.27,.54-.47,.86-.61,.32-.13,.66-.2,1-.2,.76,0,1.37,.25,1.82,.74,.45,.5,.68,1.26,.68,2.29,0,.06,0,.13,0,.19,0,.06-.01,.12-.02,.18h-4.36c.02,.76,.21,1.34,.56,1.75,.35,.41,.91,.61,1.68,.61,.42,0,.76-.04,1.01-.12,.25-.08,.43-.15,.54-.2l.14,.67c-.11,.06-.32,.14-.63,.23-.31,.09-.67,.13-1.09,.13-.54,0-1.01-.08-1.39-.24-.38-.16-.7-.38-.95-.67-.25-.29-.43-.63-.54-1.03-.11-.4-.17-.83-.17-1.3Zm4.4-.49c-.02-.65-.17-1.15-.46-1.51-.29-.36-.7-.54-1.22-.54-.28,0-.53,.06-.75,.17-.22,.11-.41,.26-.58,.45-.16,.19-.29,.41-.38,.65-.09,.25-.15,.51-.16,.78h3.55Z"/><path class="cls-1" d="M173.1,11.59c-.26,0-.49-.04-.69-.1-.2-.06-.36-.15-.49-.28s-.23-.28-.3-.48c-.07-.2-.1-.44-.1-.74V2.31l.78-.14v7.8c0,.19,.02,.35,.05,.46,.04,.12,.09,.21,.16,.28,.07,.07,.17,.12,.28,.15s.25,.06,.41,.08l-.11,.65Z"/><path class="cls-1" d="M183.97,7.31c0,.71-.11,1.33-.34,1.86-.22,.53-.54,.97-.94,1.32-.4,.35-.89,.62-1.45,.79-.56,.18-1.18,.26-1.85,.26-.34,0-.69-.02-1.06-.05-.37-.04-.69-.09-.97-.16V3.32c.28-.08,.6-.14,.97-.17s.72-.05,1.06-.05c.67,0,1.29,.09,1.85,.26,.56,.18,1.04,.44,1.45,.79,.4,.35,.72,.79,.94,1.32,.22,.53,.34,1.14,.34,1.85Zm-5.78,3.44s.17,.02,.37,.05c.2,.02,.51,.04,.94,.04,.6,0,1.12-.08,1.57-.25,.45-.16,.82-.4,1.13-.7,.3-.3,.53-.67,.68-1.11,.15-.44,.23-.93,.23-1.47s-.08-1.03-.23-1.46-.38-.8-.68-1.1c-.3-.3-.68-.54-1.13-.7-.45-.16-.97-.25-1.57-.25-.43,0-.75,.01-.94,.04-.2,.02-.32,.04-.37,.05v6.88Z"/><path class="cls-1" d="M187.79,2.81l-2.05,1.67-.4-.46,1.9-1.82,.55,.61Zm-1.26,8.66h-.78V5.27h.78v6.2Z"/><path class="cls-1" d="M190.47,5.13c.41,0,.75,.06,1.04,.17s.51,.28,.69,.48c.18,.2,.3,.45,.38,.73,.08,.28,.12,.58,.12,.91v3.91c-.08,.02-.2,.05-.35,.08-.15,.03-.33,.06-.53,.09-.2,.03-.42,.06-.67,.08-.24,.02-.49,.03-.75,.03-.33,0-.63-.04-.91-.11-.28-.07-.52-.19-.72-.34-.2-.16-.36-.36-.48-.6s-.17-.54-.17-.89,.06-.62,.19-.86,.31-.44,.54-.59c.23-.16,.51-.27,.83-.34,.32-.07,.67-.11,1.04-.11,.11,0,.23,0,.35,.02s.24,.03,.36,.05c.12,.02,.22,.04,.3,.06,.08,.02,.14,.04,.17,.05v-.38c0-.22-.02-.43-.05-.63-.03-.2-.1-.39-.21-.55-.11-.16-.26-.3-.46-.4-.2-.1-.45-.15-.77-.15-.46,0-.8,.03-1.02,.1-.22,.06-.39,.12-.49,.16l-.11-.68c.14-.06,.35-.12,.63-.18,.28-.06,.63-.08,1.03-.08Zm.07,5.78c.3,0,.57,0,.8-.03,.23-.02,.42-.05,.58-.08v-2.18c-.09-.04-.23-.08-.42-.13-.19-.04-.46-.07-.79-.07-.19,0-.39,.01-.6,.04s-.4,.09-.58,.18c-.18,.09-.32,.22-.43,.38s-.17,.37-.17,.64c0,.23,.04,.43,.11,.59s.18,.29,.32,.38c.14,.1,.31,.17,.5,.21,.2,.04,.42,.07,.67,.07Z"/><path class="cls-1" d="M198.55,5.91c-.19,.21-.43,.49-.72,.86-.29,.37-.61,.78-.95,1.23-.34,.45-.67,.93-1,1.42-.33,.49-.62,.96-.87,1.4h3.64v.66h-4.54v-.56c.21-.39,.46-.83,.77-1.3,.31-.47,.62-.94,.96-1.4,.33-.46,.65-.89,.97-1.29s.58-.73,.79-.99h-3.3v-.66h4.25v.64Z"/><path class="cls-1" d="M207.67,10.77v.71h-4.73V3.16h.82v7.61h3.91Z"/><path class="cls-1" d="M213.68,11.26c-.23,.06-.54,.14-.94,.22-.39,.08-.87,.12-1.44,.12-.46,0-.85-.07-1.16-.2-.31-.14-.56-.33-.76-.58s-.33-.55-.41-.9c-.08-.35-.13-.74-.13-1.16v-3.48h.78v3.23c0,.44,.03,.81,.1,1.12,.06,.3,.17,.55,.31,.74,.14,.19,.33,.32,.56,.41,.23,.08,.51,.13,.83,.13,.37,0,.69-.02,.96-.06,.27-.04,.44-.08,.52-.11V5.27h.78v5.99Z"/><path class="cls-1" d="M216.71,3.4c0,.18-.06,.33-.17,.44-.11,.11-.25,.16-.41,.16s-.3-.05-.41-.16c-.11-.11-.17-.25-.17-.44s.06-.33,.17-.44c.11-.11,.25-.16,.41-.16s.3,.05,.41,.16c.11,.11,.17,.25,.17,.44Zm-.18,8.08h-.78V5.27h.78v6.2Z"/><path class="cls-1" d="M219.86,10.93c.45,0,.82-.07,1.11-.22,.29-.15,.44-.4,.44-.75,0-.17-.03-.31-.08-.43-.05-.12-.14-.23-.26-.32-.12-.1-.28-.19-.47-.28s-.44-.19-.73-.31c-.23-.1-.45-.19-.66-.29-.21-.1-.39-.22-.55-.35-.16-.13-.29-.29-.38-.47-.1-.18-.14-.41-.14-.67,0-.5,.19-.91,.57-1.22,.38-.31,.9-.47,1.57-.47,.42,0,.77,.04,1.05,.11,.28,.07,.47,.14,.58,.19l-.18,.7c-.1-.05-.26-.11-.49-.19-.23-.08-.56-.12-1-.12-.18,0-.34,.02-.5,.05-.16,.04-.29,.09-.41,.17s-.22,.17-.29,.29c-.07,.12-.11,.26-.11,.43s.03,.31,.1,.43,.16,.23,.28,.32c.12,.09,.28,.18,.46,.26,.18,.08,.39,.17,.62,.26,.24,.1,.47,.19,.69,.29s.41,.22,.58,.36,.3,.31,.41,.5c.1,.2,.16,.44,.16,.74,0,.56-.21,.98-.63,1.27s-.99,.43-1.72,.43c-.54,0-.96-.05-1.25-.14s-.48-.16-.58-.21l.2-.71s.08,.04,.16,.08,.19,.08,.32,.12,.3,.08,.49,.11c.19,.03,.41,.05,.65,.05Z"/><path class="cls-1" d="M226.51,11.48V3.16h4.74v.71h-3.92v2.93h3.48v.71h-3.48v3.97h-.82Z"/><path class="cls-1" d="M232.33,8.37c0-.54,.08-1.02,.23-1.42,.16-.4,.36-.74,.61-1.01,.25-.27,.54-.47,.86-.61,.32-.13,.66-.2,1-.2,.76,0,1.37,.25,1.82,.74,.45,.5,.68,1.26,.68,2.29,0,.06,0,.13,0,.19,0,.06-.01,.12-.02,.18h-4.36c.02,.76,.21,1.34,.56,1.75,.35,.41,.91,.61,1.68,.61,.42,0,.76-.04,1.01-.12,.25-.08,.43-.15,.54-.2l.14,.67c-.11,.06-.32,.14-.63,.23s-.67,.13-1.09,.13c-.54,0-1.01-.08-1.39-.24-.38-.16-.7-.38-.95-.67s-.43-.63-.54-1.03c-.11-.4-.17-.83-.17-1.3Zm4.4-.49c-.02-.65-.17-1.15-.46-1.51-.29-.36-.7-.54-1.22-.54-.28,0-.53,.06-.75,.17-.22,.11-.41,.26-.58,.45-.16,.19-.29,.41-.38,.65s-.15,.51-.16,.78h3.55Z"/><path class="cls-1" d="M241.39,5.15c.26,0,.5,.02,.73,.06,.23,.04,.39,.08,.47,.12l-.16,.67c-.06-.03-.19-.07-.39-.1s-.45-.05-.77-.05c-.34,0-.61,.02-.81,.07s-.34,.09-.4,.12v5.44h-.78V5.56c.2-.09,.48-.18,.83-.27,.35-.09,.78-.14,1.28-.14Z"/><path class="cls-1" d="M243.77,5.49c.23-.06,.54-.14,.94-.22,.39-.08,.87-.12,1.44-.12,.47,0,.87,.07,1.18,.2,.32,.14,.57,.33,.76,.58,.19,.25,.32,.55,.4,.91,.08,.35,.12,.74,.12,1.16v3.47h-.78v-3.22c0-.44-.03-.81-.09-1.12s-.16-.55-.3-.74c-.14-.19-.32-.33-.55-.41-.23-.08-.51-.13-.86-.13-.37,0-.69,.02-.95,.06-.27,.04-.44,.08-.52,.11v5.45h-.78V5.49Z"/><path class="cls-1" d="M252.48,5.13c.41,0,.75,.06,1.04,.17s.51,.28,.69,.48c.18,.2,.3,.45,.38,.73,.08,.28,.12,.58,.12,.91v3.91c-.08,.02-.2,.05-.35,.08-.15,.03-.33,.06-.53,.09-.2,.03-.42,.06-.67,.08-.24,.02-.49,.03-.75,.03-.33,0-.63-.04-.91-.11-.28-.07-.52-.19-.72-.34-.2-.16-.36-.36-.48-.6s-.17-.54-.17-.89,.06-.62,.19-.86,.31-.44,.54-.59c.23-.16,.51-.27,.83-.34,.32-.07,.67-.11,1.04-.11,.11,0,.23,0,.35,.02s.24,.03,.36,.05c.12,.02,.22,.04,.3,.06,.08,.02,.14,.04,.17,.05v-.38c0-.22-.02-.43-.05-.63-.03-.2-.1-.39-.21-.55-.11-.16-.26-.3-.46-.4-.2-.1-.45-.15-.77-.15-.46,0-.8,.03-1.02,.1-.22,.06-.39,.12-.49,.16l-.11-.68c.14-.06,.35-.12,.63-.18,.28-.06,.63-.08,1.03-.08Zm.07,5.78c.3,0,.57,0,.8-.03,.23-.02,.42-.05,.58-.08v-2.18c-.09-.04-.23-.08-.42-.13-.19-.04-.46-.07-.79-.07-.19,0-.39,.01-.6,.04s-.4,.09-.58,.18c-.18,.09-.32,.22-.43,.38s-.17,.37-.17,.64c0,.23,.04,.43,.11,.59s.18,.29,.32,.38c.14,.1,.31,.17,.5,.21,.2,.04,.42,.07,.67,.07Z"/><path class="cls-1" d="M256.7,5.49c.23-.06,.54-.14,.94-.22,.39-.08,.87-.12,1.44-.12,.47,0,.87,.07,1.18,.2,.32,.14,.57,.33,.76,.58,.19,.25,.32,.55,.4,.91,.08,.35,.12,.74,.12,1.16v3.47h-.78v-3.22c0-.44-.03-.81-.09-1.12s-.16-.55-.3-.74c-.14-.19-.32-.33-.55-.41-.23-.08-.51-.13-.86-.13-.37,0-.69,.02-.95,.06-.27,.04-.44,.08-.52,.11v5.45h-.78V5.49Z"/><path class="cls-1" d="M268.46,11.29c-.23,.08-.53,.16-.89,.23-.36,.07-.82,.11-1.37,.11-.46,0-.87-.07-1.24-.22-.37-.15-.69-.36-.96-.64-.27-.28-.48-.62-.62-1.02-.15-.4-.22-.85-.22-1.36,0-.47,.06-.91,.19-1.3,.12-.4,.31-.74,.55-1.03,.24-.29,.53-.51,.88-.67,.35-.16,.75-.24,1.19-.24,.41,0,.76,.06,1.06,.17s.52,.23,.65,.33V2.31l.78-.14V11.29Zm-.78-4.88c-.07-.06-.16-.12-.27-.18s-.23-.12-.38-.18c-.14-.06-.3-.1-.47-.14s-.34-.05-.53-.05c-.38,0-.71,.07-.97,.2-.26,.14-.47,.32-.63,.55-.16,.23-.28,.5-.35,.8-.07,.31-.11,.63-.11,.98,0,.82,.2,1.44,.61,1.88,.41,.44,.95,.65,1.62,.65,.38,0,.69-.02,.93-.05,.24-.04,.41-.07,.53-.11V6.4Z"/><path class="cls-1" d="M275.82,8.38c0,.49-.07,.93-.21,1.33-.14,.4-.34,.74-.59,1.02s-.55,.5-.89,.65-.72,.23-1.14,.23-.8-.08-1.14-.23c-.34-.16-.64-.37-.89-.65s-.45-.62-.59-1.02c-.14-.4-.21-.84-.21-1.33s.07-.93,.21-1.33c.14-.4,.34-.74,.59-1.03s.55-.5,.89-.66c.34-.16,.72-.23,1.14-.23s.8,.08,1.14,.23c.34,.16,.64,.38,.89,.66s.45,.63,.59,1.03c.14,.4,.21,.84,.21,1.33Zm-.83,0c0-.78-.18-1.39-.54-1.85s-.85-.69-1.46-.69-1.1,.23-1.46,.69c-.36,.46-.54,1.08-.54,1.85s.18,1.39,.54,1.85c.36,.46,.85,.68,1.46,.68s1.1-.23,1.46-.68,.54-1.07,.54-1.85Z"/></g><g><path class="cls-1" d="M138.58,27.7v-6.24h3.6v.53h-2.99v2.17h2.66v.52h-2.66v2.48h3.22v.53h-3.83Z"/><path class="cls-1" d="M145.73,27.84c-.41,0-.77-.06-1.06-.19s-.53-.3-.71-.52c-.18-.22-.31-.48-.39-.78-.08-.3-.12-.62-.12-.96v-3.92h.61v3.84c0,.34,.04,.64,.12,.89s.19,.46,.34,.62,.32,.28,.52,.36,.43,.12,.68,.12,.48-.04,.68-.12c.2-.08,.38-.2,.52-.36s.26-.37,.34-.62,.12-.54,.12-.89v-3.84h.61v3.92c0,.34-.04,.66-.12,.96s-.21,.56-.39,.78c-.18,.22-.42,.4-.71,.52-.29,.13-.64,.19-1.06,.19Z"/><path class="cls-1" d="M153.56,21.47v.53h-2v5.71h-.61v-5.71h-2v-.53h4.61Z"/><path class="cls-1" d="M159.17,27.84c-.4,0-.78-.07-1.12-.22-.35-.14-.65-.35-.9-.63s-.46-.62-.6-1.02-.22-.87-.22-1.39,.08-.99,.24-1.39c.16-.41,.37-.75,.63-1.02,.26-.28,.57-.48,.92-.62,.35-.14,.71-.21,1.09-.21,.23,0,.45,.01,.64,.04,.19,.03,.36,.07,.5,.11s.27,.09,.37,.14c.1,.04,.18,.08,.23,.12l-.2,.53c-.15-.09-.34-.18-.57-.27s-.52-.13-.86-.13c-.39,0-.73,.07-1.02,.2-.29,.13-.54,.32-.73,.56-.2,.24-.35,.53-.45,.86s-.15,.7-.15,1.1,.05,.79,.15,1.12,.24,.62,.44,.85c.19,.23,.43,.41,.71,.54,.28,.13,.6,.19,.96,.19,.4,0,.73-.04,.99-.11,.27-.08,.47-.15,.61-.23l.17,.52s-.11,.06-.22,.1c-.1,.04-.23,.08-.39,.12-.16,.04-.34,.08-.54,.1-.2,.03-.43,.04-.68,.04Z"/><path class="cls-1" d="M165.99,25.38c0,.37-.05,.7-.16,1-.1,.3-.25,.56-.44,.77s-.41,.37-.67,.49c-.26,.12-.54,.18-.85,.18s-.6-.06-.85-.18c-.26-.12-.48-.28-.67-.49-.19-.21-.34-.46-.44-.77-.1-.3-.16-.63-.16-1s.05-.7,.16-1c.1-.3,.25-.56,.44-.77,.19-.21,.41-.38,.67-.5,.26-.12,.54-.17,.85-.17s.6,.06,.85,.17c.26,.12,.48,.28,.67,.5s.34,.47,.44,.77c.1,.3,.16,.63,.16,1Zm-.62,0c0-.58-.14-1.04-.41-1.39-.27-.34-.64-.52-1.1-.52s-.83,.17-1.1,.52c-.27,.35-.4,.81-.4,1.39s.13,1.04,.4,1.39c.27,.34,.64,.51,1.1,.51s.83-.17,1.1-.51c.27-.34,.41-.8,.41-1.39Z"/><path class="cls-1" d="M167.26,23.21c.17-.05,.41-.1,.7-.16,.29-.06,.65-.09,1.08-.09,.36,0,.65,.05,.89,.15,.24,.1,.43,.25,.57,.44,.14,.19,.24,.42,.3,.68,.06,.26,.09,.55,.09,.87v2.6h-.58v-2.41c0-.33-.02-.61-.07-.84-.04-.23-.12-.41-.22-.56-.11-.14-.24-.25-.41-.31-.17-.06-.39-.09-.64-.09-.28,0-.51,.01-.71,.04s-.33,.06-.39,.08v4.09h-.58v-4.49Z"/><path class="cls-1" d="M172.93,23.05h1.85v.5h-1.85v2.48c0,.26,.02,.48,.07,.64s.11,.29,.19,.38,.19,.15,.31,.18c.12,.03,.25,.04,.4,.04,.25,0,.44-.03,.59-.09,.15-.06,.27-.11,.35-.16l.14,.49c-.08,.05-.23,.12-.44,.18-.21,.07-.44,.1-.68,.1-.29,0-.53-.04-.72-.11s-.35-.19-.47-.34-.2-.34-.25-.57c-.05-.23-.07-.5-.07-.81v-4.28l.58-.11v1.48Z"/><path class="cls-1" d="M177.45,22.96c.19,0,.37,.02,.54,.04,.17,.03,.29,.06,.36,.09l-.12,.5s-.15-.05-.29-.08c-.15-.03-.34-.04-.58-.04s-.45,.02-.61,.05c-.15,.04-.25,.07-.3,.09v4.08h-.58v-4.44c.15-.07,.36-.13,.62-.2,.26-.07,.59-.1,.96-.1Z"/><path class="cls-1" d="M183.2,25.38c0,.37-.05,.7-.16,1-.11,.3-.25,.56-.44,.77s-.41,.37-.67,.49-.54,.18-.85,.18-.6-.06-.86-.18-.48-.28-.67-.49c-.19-.21-.34-.46-.44-.77-.1-.3-.16-.63-.16-1s.05-.7,.16-1c.11-.3,.25-.56,.44-.77,.19-.21,.41-.38,.67-.5,.26-.12,.54-.17,.86-.17s.6,.06,.85,.17c.26,.12,.48,.28,.67,.5s.34,.47,.44,.77c.1,.3,.16,.63,.16,1Zm-.62,0c0-.58-.13-1.04-.41-1.39-.27-.34-.64-.52-1.1-.52s-.83,.17-1.1,.52c-.27,.35-.41,.81-.41,1.39s.13,1.04,.41,1.39c.27,.34,.64,.51,1.1,.51s.83-.17,1.1-.51c.27-.34,.41-.8,.41-1.39Z"/><path class="cls-1" d="M185.65,27.79c-.2,0-.37-.03-.52-.08-.15-.04-.27-.11-.37-.21-.1-.09-.17-.21-.22-.36-.05-.15-.08-.33-.08-.55v-5.76l.58-.11v5.85c0,.14,.01,.26,.04,.35s.07,.16,.12,.21c.05,.05,.12,.09,.21,.11,.09,.02,.19,.04,.31,.06l-.08,.49Z"/><path class="cls-1" d="M190.09,27.8c-.2-.37-.38-.75-.57-1.14s-.36-.8-.52-1.2c-.16-.4-.31-.81-.44-1.21-.13-.41-.25-.8-.34-1.19h.62c.07,.29,.15,.6,.25,.93s.22,.68,.35,1.03c.13,.35,.27,.72,.43,1.09,.16,.37,.33,.74,.51,1.1,.13-.37,.25-.72,.35-1.05,.1-.33,.2-.66,.29-.98,.09-.33,.17-.66,.25-1,.08-.34,.17-.71,.25-1.11h.59c-.2,.87-.42,1.72-.66,2.54-.24,.82-.51,1.57-.8,2.26-.11,.27-.23,.5-.35,.7-.12,.19-.25,.36-.4,.48-.15,.13-.32,.22-.52,.28-.2,.06-.43,.09-.69,.09-.15,0-.29-.02-.41-.05-.12-.04-.2-.06-.23-.08l.12-.49s.09,.04,.2,.08,.23,.05,.35,.05c.17,0,.32-.02,.46-.05,.14-.04,.26-.1,.37-.18,.11-.09,.21-.2,.29-.34,.09-.14,.17-.31,.25-.52Z"/><path class="cls-1" d="M199.06,24.75h.61v2.78c-.11,.05-.34,.11-.67,.18s-.74,.11-1.23,.11c-.41,0-.79-.07-1.13-.22-.35-.14-.65-.35-.91-.63-.25-.27-.45-.61-.6-1.02-.14-.41-.22-.87-.22-1.39s.08-.99,.23-1.39,.37-.74,.63-1.02c.27-.27,.58-.48,.93-.63,.35-.14,.73-.22,1.13-.22,.46,0,.84,.05,1.14,.15,.3,.1,.52,.19,.66,.28l-.21,.52c-.17-.12-.4-.22-.68-.29-.29-.07-.6-.11-.94-.11-.31,0-.61,.06-.88,.17-.28,.11-.52,.29-.72,.51-.2,.23-.37,.51-.48,.85-.12,.34-.18,.73-.18,1.17,0,.41,.05,.79,.14,1.12,.1,.33,.24,.62,.44,.86,.2,.24,.44,.42,.72,.54s.62,.19,1,.19c.31,0,.56-.02,.77-.05,.21-.03,.35-.06,.42-.09v-2.39Z"/><path class="cls-1" d="M200.78,25.37c0-.41,.06-.76,.18-1.07,.12-.3,.27-.56,.46-.76,.19-.2,.4-.36,.65-.45,.24-.1,.49-.15,.75-.15,.57,0,1.02,.19,1.36,.56s.51,.95,.51,1.72c0,.05,0,.1,0,.14s0,.09-.01,.13h-3.27c.02,.57,.16,1.01,.42,1.31,.26,.31,.68,.46,1.26,.46,.32,0,.57-.03,.76-.09,.19-.06,.32-.11,.41-.15l.11,.5c-.08,.05-.24,.1-.47,.17-.23,.07-.5,.1-.81,.1-.41,0-.76-.06-1.04-.18s-.53-.29-.71-.5c-.19-.22-.32-.47-.41-.77s-.13-.62-.13-.98Zm3.3-.37c-.01-.49-.13-.86-.34-1.13s-.52-.41-.92-.41c-.21,0-.4,.04-.56,.13s-.31,.2-.43,.34c-.12,.14-.22,.3-.29,.49-.07,.19-.11,.38-.12,.58h2.66Z"/><path class="cls-1" d="M206.94,27.29c.34,0,.61-.06,.83-.17,.22-.11,.33-.3,.33-.56,0-.13-.02-.23-.06-.32s-.1-.17-.19-.24-.21-.14-.36-.21c-.15-.07-.33-.14-.54-.23-.17-.07-.34-.15-.5-.22-.16-.08-.29-.16-.41-.26-.12-.1-.22-.22-.29-.36-.07-.14-.11-.31-.11-.5,0-.38,.14-.68,.43-.92,.29-.23,.68-.35,1.17-.35,.32,0,.58,.03,.79,.08,.21,.05,.35,.1,.44,.14l-.13,.52c-.07-.04-.19-.08-.36-.14-.17-.06-.42-.09-.75-.09-.13,0-.26,.01-.37,.04-.12,.03-.22,.07-.31,.13s-.16,.13-.22,.22c-.05,.09-.08,.19-.08,.32s.02,.24,.07,.33,.12,.17,.21,.24c.09,.07,.21,.13,.34,.19,.13,.06,.29,.13,.46,.2,.18,.07,.35,.15,.52,.22,.17,.08,.31,.17,.44,.27,.13,.11,.23,.23,.31,.38,.08,.15,.12,.33,.12,.55,0,.42-.16,.74-.47,.95s-.75,.32-1.29,.32c-.41,0-.72-.04-.94-.1-.22-.07-.36-.12-.43-.16l.15-.53s.06,.03,.12,.06c.06,.03,.14,.06,.24,.09,.1,.03,.22,.06,.36,.08,.14,.02,.3,.04,.49,.04Z"/><path class="cls-1" d="M210.39,23.05h1.85v.5h-1.85v2.48c0,.26,.02,.48,.07,.64s.11,.29,.19,.38,.19,.15,.31,.18c.12,.03,.25,.04,.4,.04,.25,0,.44-.03,.59-.09,.15-.06,.27-.11,.35-.16l.14,.49c-.08,.05-.23,.12-.44,.18-.21,.07-.44,.1-.68,.1-.29,0-.53-.04-.72-.11s-.35-.19-.47-.34-.2-.34-.25-.57c-.05-.23-.07-.5-.07-.81v-4.28l.58-.11v1.48Z"/><path class="cls-1" d="M214.04,21.65c0,.14-.04,.25-.13,.33s-.19,.12-.31,.12-.22-.04-.31-.12-.13-.19-.13-.33,.04-.25,.13-.33,.19-.12,.31-.12,.22,.04,.31,.12,.13,.19,.13,.33Zm-.13,6.06h-.58v-4.65h.58v4.65Z"/><path class="cls-1" d="M219.43,25.38c0,.37-.05,.7-.16,1-.11,.3-.25,.56-.44,.77s-.41,.37-.67,.49-.54,.18-.85,.18-.6-.06-.86-.18-.48-.28-.67-.49c-.19-.21-.34-.46-.44-.77-.1-.3-.16-.63-.16-1s.05-.7,.16-1c.11-.3,.25-.56,.44-.77,.19-.21,.41-.38,.67-.5,.26-.12,.54-.17,.86-.17s.6,.06,.85,.17c.26,.12,.48,.28,.67,.5s.34,.47,.44,.77c.1,.3,.16,.63,.16,1Zm-.62,0c0-.58-.13-1.04-.41-1.39-.27-.34-.64-.52-1.1-.52s-.83,.17-1.1,.52c-.27,.35-.41,.81-.41,1.39s.13,1.04,.41,1.39c.27,.34,.64,.51,1.1,.51s.83-.17,1.1-.51c.27-.34,.41-.8,.41-1.39Zm-.26-4.18l-1.54,1.25-.3-.34,1.42-1.37,.41,.46Z"/><path class="cls-1" d="M220.7,23.21c.17-.05,.41-.1,.7-.16,.29-.06,.65-.09,1.08-.09,.35,0,.65,.05,.89,.15,.24,.1,.43,.25,.57,.44,.14,.19,.24,.42,.3,.68,.06,.26,.09,.55,.09,.87v2.6h-.58v-2.41c0-.33-.02-.61-.07-.84-.04-.23-.12-.41-.22-.56-.11-.14-.24-.25-.41-.31-.17-.06-.39-.09-.64-.09-.28,0-.51,.01-.71,.04-.2,.03-.33,.06-.39,.08v4.09h-.58v-4.49Z"/><path class="cls-1" d="M139.72,38.59c-.2,0-.37-.03-.52-.08s-.27-.11-.37-.21c-.1-.09-.17-.21-.23-.36-.05-.15-.08-.33-.08-.55v-5.76l.58-.11v5.85c0,.14,.01,.26,.04,.35,.03,.09,.07,.16,.12,.21,.05,.05,.12,.09,.21,.11,.09,.02,.19,.04,.31,.06l-.08,.49Z"/><path class="cls-1" d="M144.41,38.34c-.17,.05-.41,.1-.7,.16s-.65,.09-1.08,.09c-.35,0-.64-.05-.87-.15-.23-.1-.42-.25-.57-.43-.14-.19-.25-.41-.31-.67s-.09-.55-.09-.87v-2.61h.58v2.42c0,.33,.02,.61,.07,.84,.05,.23,.13,.41,.23,.55,.11,.14,.25,.24,.42,.31,.17,.06,.38,.09,.63,.09,.28,0,.52-.01,.72-.04,.2-.03,.33-.06,.39-.08v-4.09h.58v4.49Z"/><path class="cls-1" d="M146.68,32.45c0,.14-.04,.25-.13,.33-.08,.08-.19,.12-.31,.12s-.22-.04-.31-.12-.13-.19-.13-.33,.04-.25,.13-.33,.19-.12,.31-.12,.22,.04,.31,.12c.08,.08,.13,.19,.13,.33Zm-.14,6.06h-.58v-4.65h.58v4.65Z"/><path class="cls-1" d="M149.68,33.76c.19,0,.37,.02,.54,.04,.17,.03,.29,.06,.36,.09l-.12,.5s-.15-.05-.29-.08c-.15-.03-.34-.04-.58-.04-.25,0-.45,.02-.61,.05-.15,.04-.25,.07-.3,.09v4.08h-.58v-4.44c.15-.07,.36-.13,.62-.2,.26-.07,.58-.1,.96-.1Z"/><path class="cls-1" d="M152.87,33.74c.31,0,.57,.04,.78,.13,.21,.09,.39,.21,.52,.36s.23,.33,.29,.54,.09,.44,.09,.68v2.93c-.06,.02-.15,.04-.26,.06-.11,.02-.25,.04-.4,.07-.15,.02-.32,.04-.5,.06-.18,.02-.37,.02-.56,.02-.25,0-.47-.03-.68-.08-.21-.05-.39-.14-.54-.26-.15-.12-.27-.27-.36-.45s-.13-.41-.13-.67,.05-.47,.14-.65c.1-.18,.23-.33,.4-.45,.17-.12,.38-.2,.62-.26,.24-.05,.5-.08,.78-.08,.08,0,.17,0,.27,.01,.09,0,.18,.02,.27,.04,.09,.01,.16,.03,.23,.04s.11,.03,.13,.04v-.29c0-.16-.01-.32-.04-.47-.02-.15-.08-.29-.16-.41s-.19-.22-.34-.3c-.15-.07-.34-.11-.58-.11-.34,0-.6,.02-.77,.07s-.29,.09-.37,.12l-.08-.51c.1-.05,.26-.09,.47-.13s.47-.06,.77-.06Zm.05,4.34c.23,0,.43,0,.6-.02,.17-.01,.32-.03,.44-.06v-1.64c-.07-.03-.17-.06-.31-.09s-.34-.05-.59-.05c-.14,0-.29,.01-.45,.03-.16,.02-.3,.07-.43,.14-.13,.07-.24,.16-.32,.28s-.13,.28-.13,.48c0,.17,.03,.32,.09,.44,.06,.12,.14,.22,.24,.29s.23,.12,.38,.16c.15,.03,.31,.05,.5,.05Z"/><path class="cls-1" d="M156.04,34.01c.17-.05,.41-.1,.7-.16,.29-.06,.65-.09,1.08-.09,.35,0,.65,.05,.89,.15,.24,.1,.43,.25,.57,.44,.14,.19,.24,.42,.3,.68,.06,.26,.09,.55,.09,.87v2.6h-.58v-2.41c0-.33-.02-.61-.07-.84-.04-.23-.12-.41-.23-.56-.1-.14-.24-.25-.41-.31-.17-.06-.39-.09-.64-.09-.28,0-.51,.01-.72,.04s-.33,.06-.39,.08v4.09h-.58v-4.49Z"/><path class="cls-1" d="M164.19,37.96s-.09,.06-.16,.1-.16,.08-.27,.12c-.1,.04-.23,.08-.36,.1-.14,.03-.29,.04-.45,.04-.27,0-.53-.04-.78-.13-.25-.08-.47-.22-.66-.4-.19-.18-.34-.41-.45-.7-.11-.29-.17-.63-.17-1.04,0-.33,.05-.64,.15-.92s.25-.53,.44-.73,.42-.37,.69-.49,.58-.18,.92-.18c.43,0,.78,.03,1.04,.09,.26,.06,.48,.11,.64,.17v4.25c0,.7-.18,1.19-.54,1.49-.36,.3-.9,.45-1.63,.45-.3,0-.57-.02-.81-.07-.24-.04-.45-.1-.63-.16l.12-.53c.14,.07,.34,.12,.59,.17,.25,.05,.5,.07,.75,.07,.55,0,.95-.11,1.2-.32s.37-.58,.37-1.09v-.31Zm0-3.55c-.1-.03-.23-.06-.4-.09-.16-.03-.39-.04-.69-.04-.25,0-.48,.04-.67,.13-.2,.09-.36,.21-.5,.37-.14,.16-.24,.35-.31,.57-.07,.22-.11,.46-.11,.72,0,.31,.04,.57,.13,.79,.08,.22,.19,.4,.33,.54,.14,.14,.29,.24,.46,.3,.17,.06,.35,.09,.53,.09,.26,0,.51-.04,.72-.12,.22-.08,.39-.17,.51-.27v-3Z"/><path class="cls-1" d="M166.04,36.17c0-.41,.06-.76,.18-1.07,.12-.3,.27-.56,.46-.76s.41-.36,.65-.45c.24-.1,.49-.15,.75-.15,.57,0,1.02,.19,1.36,.56,.34,.37,.51,.95,.51,1.72,0,.05,0,.1,0,.14,0,.05,0,.09-.01,.13h-3.27c.02,.57,.16,1.01,.42,1.31,.26,.31,.68,.46,1.26,.46,.32,0,.57-.03,.76-.09,.19-.06,.32-.11,.4-.15l.11,.5c-.08,.05-.24,.1-.47,.17-.23,.07-.5,.1-.82,.1-.41,0-.76-.06-1.04-.18-.29-.12-.52-.29-.71-.5s-.32-.47-.4-.77-.13-.62-.13-.98Zm3.3-.37c-.01-.49-.12-.86-.34-1.13-.21-.27-.52-.41-.92-.41-.21,0-.4,.04-.56,.13s-.31,.2-.43,.34-.22,.3-.29,.49c-.07,.19-.11,.38-.12,.58h2.66Z"/><path class="cls-1" d="M172.43,38.59c-.2,0-.37-.03-.52-.08-.15-.04-.27-.11-.37-.21-.1-.09-.17-.21-.22-.36-.05-.15-.08-.33-.08-.55v-5.76l.58-.11v5.85c0,.14,.01,.26,.04,.35s.07,.16,.12,.21c.05,.05,.12,.09,.21,.11,.09,.02,.19,.04,.31,.06l-.08,.49Z"/><path class="cls-1" d="M178.95,37.98c-.19,0-.35-.03-.46-.1-.12-.07-.2-.14-.26-.22-.11,.07-.25,.14-.44,.22-.19,.07-.39,.11-.61,.11-.28,0-.53-.04-.76-.12s-.43-.2-.6-.37c-.17-.16-.3-.37-.4-.62-.1-.25-.14-.55-.14-.89,0-.28,.04-.55,.13-.79s.21-.46,.38-.64c.17-.18,.37-.33,.61-.43,.24-.1,.52-.16,.83-.16,.29,0,.55,.03,.78,.08,.23,.05,.41,.1,.54,.16v2.64c0,.23,.04,.4,.12,.5s.19,.15,.32,.15c.2,0,.37-.06,.5-.19,.13-.13,.23-.29,.31-.49s.13-.4,.16-.62c.03-.22,.04-.42,.04-.6,0-.39-.07-.76-.2-1.12-.13-.35-.32-.66-.57-.93-.25-.27-.55-.48-.91-.64s-.77-.24-1.22-.24-.88,.07-1.26,.22c-.38,.15-.7,.36-.97,.64-.27,.28-.48,.63-.63,1.04-.15,.41-.22,.88-.22,1.41,0,.56,.08,1.05,.25,1.47s.39,.77,.68,1.05,.63,.49,1.02,.63c.39,.14,.82,.21,1.27,.21,.35,0,.62-.02,.82-.05,.2-.03,.33-.06,.4-.08l.06,.5c-.1,.03-.27,.06-.51,.1-.24,.04-.5,.05-.77,.05-.52,0-1.01-.08-1.48-.23-.46-.15-.87-.39-1.21-.71-.34-.32-.62-.72-.82-1.21-.2-.49-.3-1.06-.3-1.73s.1-1.2,.29-1.68c.19-.48,.46-.88,.79-1.2,.33-.32,.72-.55,1.17-.71s.92-.23,1.43-.23,.93,.08,1.35,.24,.79,.39,1.11,.69c.32,.3,.57,.66,.75,1.09,.18,.43,.27,.9,.27,1.43,0,.39-.04,.73-.13,1.03s-.2,.54-.35,.74c-.15,.2-.32,.35-.52,.45-.2,.1-.41,.15-.64,.15Zm-1.81-.48c.2,0,.37-.02,.5-.05,.13-.03,.26-.09,.4-.17-.02-.06-.04-.14-.05-.23,0-.09-.01-.17-.01-.24v-2.29s-.13-.03-.23-.05c-.11-.02-.26-.03-.45-.03-.23,0-.43,.04-.61,.11-.18,.08-.33,.18-.45,.31-.12,.14-.21,.3-.27,.49-.06,.19-.09,.39-.09,.62,0,.26,.03,.49,.1,.68,.07,.19,.16,.35,.27,.48,.11,.13,.25,.22,.41,.28s.32,.09,.5,.09Z"/><path class="cls-1" d="M185.04,37.96s-.09,.06-.16,.1c-.07,.04-.16,.08-.26,.12-.11,.04-.23,.08-.36,.1-.13,.03-.29,.04-.45,.04-.27,0-.53-.04-.78-.13s-.47-.22-.66-.4c-.19-.18-.34-.41-.45-.7s-.17-.63-.17-1.04c0-.33,.05-.64,.15-.92,.1-.28,.25-.53,.44-.73,.19-.21,.42-.37,.69-.49,.27-.12,.58-.18,.92-.18,.43,0,.78,.03,1.04,.09,.26,.06,.48,.11,.64,.17v4.25c0,.7-.18,1.19-.54,1.49-.36,.3-.9,.45-1.63,.45-.3,0-.57-.02-.81-.07-.24-.04-.45-.1-.62-.16l.12-.53c.14,.07,.34,.12,.59,.17,.25,.05,.5,.07,.75,.07,.55,0,.95-.11,1.2-.32s.37-.58,.37-1.09v-.31Zm0-3.55c-.1-.03-.23-.06-.4-.09-.16-.03-.39-.04-.69-.04-.25,0-.48,.04-.67,.13-.19,.09-.36,.21-.5,.37-.14,.16-.24,.35-.32,.57-.07,.22-.11,.46-.11,.72,0,.31,.04,.57,.13,.79,.08,.22,.19,.4,.33,.54,.13,.14,.29,.24,.46,.3,.17,.06,.35,.09,.53,.09,.26,0,.5-.04,.72-.12,.22-.08,.39-.17,.51-.27v-3Z"/><path class="cls-1" d="M188.75,33.76c.19,0,.37,.02,.54,.04,.17,.03,.29,.06,.36,.09l-.12,.5s-.15-.05-.29-.08c-.15-.03-.34-.04-.58-.04s-.45,.02-.61,.05c-.15,.04-.25,.07-.3,.09v4.08h-.58v-4.44c.15-.07,.36-.13,.62-.2,.26-.07,.59-.1,.96-.1Z"/><path class="cls-1" d="M194.1,38.34c-.17,.05-.41,.1-.7,.16s-.65,.09-1.08,.09c-.35,0-.64-.05-.87-.15-.23-.1-.42-.25-.57-.43-.14-.19-.25-.41-.31-.67-.06-.26-.09-.55-.09-.87v-2.61h.58v2.42c0,.33,.02,.61,.07,.84,.05,.23,.13,.41,.23,.55,.11,.14,.25,.24,.42,.31,.17,.06,.38,.09,.63,.09,.28,0,.52-.01,.72-.04,.2-.03,.33-.06,.39-.08v-4.09h.58v4.49Z"/><path class="cls-1" d="M196.23,40.17h-.58v-6.16c.17-.06,.4-.12,.67-.17,.27-.05,.61-.08,1.03-.08,.34,0,.65,.06,.93,.17,.28,.11,.52,.27,.72,.48s.36,.46,.47,.76c.11,.3,.17,.64,.17,1.02,0,.35-.05,.68-.14,.98-.09,.3-.23,.55-.41,.77s-.4,.38-.66,.5c-.26,.12-.56,.18-.89,.18-.31,0-.57-.04-.8-.13-.23-.09-.39-.17-.49-.25v1.93Zm0-2.5c.05,.04,.12,.09,.2,.13s.18,.09,.28,.13c.11,.04,.23,.08,.35,.1,.13,.03,.26,.04,.4,.04,.29,0,.53-.05,.72-.15,.2-.1,.35-.23,.47-.41s.21-.37,.26-.6c.05-.23,.08-.48,.08-.73,0-.61-.15-1.08-.46-1.41s-.71-.49-1.21-.49c-.29,0-.52,.01-.7,.04-.18,.03-.31,.06-.4,.09v3.25Z"/><path class="cls-1" d="M204.86,36.18c0,.37-.05,.7-.16,1-.11,.3-.25,.56-.44,.77s-.41,.37-.67,.49-.54,.18-.85,.18-.6-.06-.86-.18-.48-.28-.67-.49c-.19-.21-.34-.46-.44-.77-.1-.3-.16-.63-.16-1s.05-.7,.16-1c.11-.3,.25-.56,.44-.77,.19-.21,.41-.38,.67-.5,.26-.12,.54-.17,.86-.17s.6,.06,.85,.17c.26,.12,.48,.28,.67,.5s.34,.47,.44,.77c.1,.3,.16,.63,.16,1Zm-.62,0c0-.58-.13-1.04-.41-1.39-.27-.34-.64-.52-1.1-.52s-.83,.17-1.1,.52c-.27,.35-.41,.81-.41,1.39s.13,1.04,.41,1.39c.27,.34,.64,.51,1.1,.51s.83-.17,1.1-.51c.27-.34,.41-.8,.41-1.39Z"/><path class="cls-1" d="M207.09,38.09c.34,0,.61-.06,.83-.17,.22-.11,.33-.3,.33-.56,0-.13-.02-.23-.06-.32s-.1-.17-.19-.24-.21-.14-.36-.21c-.15-.07-.33-.14-.54-.23-.17-.07-.34-.15-.5-.22-.16-.08-.29-.16-.41-.26-.12-.1-.22-.22-.29-.36-.07-.14-.11-.31-.11-.5,0-.38,.14-.68,.43-.92,.29-.23,.68-.35,1.17-.35,.32,0,.58,.03,.79,.08,.21,.05,.35,.1,.44,.14l-.13,.52c-.07-.04-.19-.08-.36-.14-.17-.06-.42-.09-.75-.09-.13,0-.26,.01-.37,.04-.12,.03-.22,.07-.31,.13s-.16,.13-.22,.22c-.05,.09-.08,.19-.08,.32s.02,.24,.07,.33,.12,.17,.21,.24c.09,.07,.21,.13,.34,.19,.13,.06,.29,.13,.46,.2,.18,.07,.35,.15,.52,.22,.17,.08,.31,.17,.44,.27,.13,.11,.23,.23,.31,.38,.08,.15,.12,.33,.12,.55,0,.42-.16,.74-.47,.95s-.75,.32-1.29,.32c-.41,0-.72-.04-.94-.1-.22-.07-.36-.12-.43-.16l.15-.53s.06,.03,.12,.06c.06,.03,.14,.06,.24,.09,.1,.03,.22,.06,.36,.08,.14,.02,.3,.04,.49,.04Z"/><path class="cls-1" d="M211.4,33.74c.31,0,.57,.04,.78,.13,.21,.09,.38,.21,.52,.36,.13,.15,.23,.33,.29,.54,.06,.21,.09,.44,.09,.68v2.93c-.06,.02-.15,.04-.26,.06-.11,.02-.25,.04-.4,.07-.15,.02-.32,.04-.5,.06-.18,.02-.37,.02-.56,.02-.25,0-.47-.03-.68-.08-.21-.05-.39-.14-.54-.26-.15-.12-.27-.27-.36-.45s-.13-.41-.13-.67,.05-.47,.14-.65c.1-.18,.23-.33,.41-.45,.17-.12,.38-.2,.62-.26,.24-.05,.5-.08,.78-.08,.08,0,.17,0,.27,.01s.18,.02,.27,.04c.09,.01,.16,.03,.22,.04s.11,.03,.13,.04v-.29c0-.16-.01-.32-.04-.47-.02-.15-.08-.29-.16-.41-.08-.12-.19-.22-.34-.3-.15-.07-.34-.11-.58-.11-.34,0-.6,.02-.77,.07s-.29,.09-.37,.12l-.08-.51c.1-.05,.26-.09,.47-.13,.21-.04,.47-.06,.77-.06Zm.05,4.34c.23,0,.43,0,.6-.02s.32-.03,.44-.06v-1.64c-.07-.03-.17-.06-.32-.09-.14-.03-.34-.05-.59-.05-.14,0-.29,.01-.45,.03-.16,.02-.3,.07-.43,.14-.13,.07-.24,.16-.32,.28s-.13,.28-.13,.48c0,.17,.03,.32,.08,.44,.06,.12,.14,.22,.24,.29,.11,.07,.23,.12,.38,.16,.15,.03,.31,.05,.5,.05Z"/><path class="cls-1" d="M214.57,34.01c.17-.05,.41-.1,.7-.16,.29-.06,.65-.09,1.08-.09,.35,0,.65,.05,.89,.15,.24,.1,.43,.25,.57,.44,.14,.19,.24,.42,.3,.68,.06,.26,.09,.55,.09,.87v2.6h-.58v-2.41c0-.33-.02-.61-.07-.84-.04-.23-.12-.41-.22-.56-.11-.14-.24-.25-.41-.31-.17-.06-.39-.09-.64-.09-.28,0-.51,.01-.71,.04-.2,.03-.33,.06-.39,.08v4.09h-.58v-4.49Z"/><path class="cls-1" d="M220.24,33.85h1.85v.5h-1.85v2.48c0,.26,.02,.48,.07,.64s.11,.29,.19,.38,.19,.15,.31,.18c.12,.03,.25,.04,.4,.04,.25,0,.44-.03,.59-.09,.15-.06,.27-.11,.35-.16l.14,.49c-.08,.05-.23,.12-.44,.18-.21,.07-.44,.1-.68,.1-.29,0-.53-.04-.72-.11s-.35-.19-.47-.34-.2-.34-.25-.57c-.05-.23-.07-.5-.07-.81v-4.28l.58-.11v1.48Z"/><path class="cls-1" d="M224.58,33.74c.31,0,.57,.04,.78,.13,.21,.09,.38,.21,.52,.36,.13,.15,.23,.33,.29,.54,.06,.21,.09,.44,.09,.68v2.93c-.06,.02-.15,.04-.26,.06-.11,.02-.25,.04-.4,.07-.15,.02-.32,.04-.5,.06-.18,.02-.37,.02-.56,.02-.25,0-.47-.03-.68-.08-.21-.05-.39-.14-.54-.26-.15-.12-.27-.27-.36-.45s-.13-.41-.13-.67,.05-.47,.14-.65c.1-.18,.23-.33,.41-.45,.17-.12,.38-.2,.62-.26,.24-.05,.5-.08,.78-.08,.08,0,.17,0,.27,.01s.18,.02,.27,.04c.09,.01,.16,.03,.22,.04s.11,.03,.13,.04v-.29c0-.16-.01-.32-.04-.47-.02-.15-.08-.29-.16-.41-.08-.12-.19-.22-.34-.3-.15-.07-.34-.11-.58-.11-.34,0-.6,.02-.77,.07s-.29,.09-.37,.12l-.08-.51c.1-.05,.26-.09,.47-.13,.21-.04,.47-.06,.77-.06Zm.05,4.34c.23,0,.43,0,.6-.02s.32-.03,.44-.06v-1.64c-.07-.03-.17-.06-.32-.09-.14-.03-.34-.05-.59-.05-.14,0-.29,.01-.45,.03-.16,.02-.3,.07-.43,.14-.13,.07-.24,.16-.32,.28s-.13,.28-.13,.48c0,.17,.03,.32,.08,.44,.06,.12,.14,.22,.24,.29,.11,.07,.23,.12,.38,.16,.15,.03,.31,.05,.5,.05Z"/><path class="cls-1" d="M227.75,34.01c.17-.05,.41-.1,.7-.16,.29-.06,.65-.09,1.08-.09,.35,0,.65,.05,.89,.15,.24,.1,.43,.25,.57,.44,.14,.19,.24,.42,.3,.68,.06,.26,.09,.55,.09,.87v2.6h-.58v-2.41c0-.33-.02-.61-.07-.84-.04-.23-.12-.41-.22-.56-.11-.14-.24-.25-.41-.31-.17-.06-.39-.09-.64-.09-.28,0-.51,.01-.71,.04-.2,.03-.33,.06-.39,.08v4.09h-.58v-4.49Z"/><path class="cls-1" d="M236.57,38.36c-.17,.06-.4,.12-.67,.17-.27,.05-.61,.08-1.03,.08-.34,0-.65-.06-.93-.17s-.52-.27-.72-.48c-.2-.21-.36-.46-.47-.76-.11-.3-.17-.64-.17-1.02,0-.35,.05-.68,.14-.98,.09-.3,.23-.55,.41-.77,.18-.22,.4-.38,.66-.5,.26-.12,.56-.18,.9-.18,.31,0,.57,.04,.8,.13s.39,.17,.49,.25v-2.5l.58-.11v6.84Zm-.58-3.66c-.05-.04-.12-.09-.2-.14-.08-.05-.18-.09-.28-.13-.11-.04-.23-.08-.35-.1-.13-.03-.26-.04-.4-.04-.29,0-.53,.05-.72,.15-.2,.1-.35,.24-.47,.41s-.21,.37-.26,.6c-.05,.23-.08,.48-.08,.73,0,.61,.15,1.08,.46,1.41,.31,.33,.71,.49,1.21,.49,.29,0,.52-.01,.7-.04,.18-.03,.31-.05,.4-.08v-3.26Z"/><path class="cls-1" d="M237.84,36.17c0-.41,.06-.76,.18-1.07,.12-.3,.27-.56,.46-.76,.19-.2,.4-.36,.65-.45,.24-.1,.49-.15,.75-.15,.57,0,1.02,.19,1.36,.56s.51,.95,.51,1.72c0,.05,0,.1,0,.14s0,.09-.01,.13h-3.27c.02,.57,.16,1.01,.42,1.31,.26,.31,.68,.46,1.26,.46,.32,0,.57-.03,.76-.09,.19-.06,.32-.11,.41-.15l.11,.5c-.08,.05-.24,.1-.47,.17-.23,.07-.5,.1-.81,.1-.41,0-.76-.06-1.04-.18s-.53-.29-.71-.5c-.19-.22-.32-.47-.41-.77s-.13-.62-.13-.98Zm3.3-.37c-.01-.49-.13-.86-.34-1.13s-.52-.41-.92-.41c-.21,0-.4,.04-.56,.13s-.31,.2-.43,.34c-.12,.14-.22,.3-.29,.49-.07,.19-.11,.38-.12,.58h2.66Z"/><path class="cls-1" d="M244.64,33.76c.19,0,.37,.02,.54,.04,.17,.03,.29,.06,.36,.09l-.12,.5s-.15-.05-.29-.08c-.15-.03-.34-.04-.58-.04s-.45,.02-.61,.05c-.15,.04-.25,.07-.3,.09v4.08h-.58v-4.44c.15-.07,.36-.13,.62-.2,.26-.07,.59-.1,.96-.1Z"/><path class="cls-1" d="M246.85,38.12c0,.14-.04,.25-.13,.35s-.21,.14-.36,.14-.28-.05-.37-.14-.13-.21-.13-.35,.04-.25,.13-.35c.09-.1,.21-.14,.37-.14s.28,.05,.36,.14c.09,.1,.13,.21,.13,.35Z"/><path class="cls-1" d="M250.16,38.6c-.36,0-.68-.06-.95-.17-.28-.11-.51-.28-.69-.49-.18-.21-.32-.47-.42-.76-.1-.3-.14-.63-.14-.99s.05-.7,.15-1c.1-.3,.24-.56,.43-.77,.19-.22,.41-.38,.67-.5,.26-.12,.56-.17,.89-.17,.25,0,.49,.02,.71,.06,.22,.04,.39,.1,.51,.16l-.15,.5c-.12-.06-.25-.11-.41-.14s-.35-.05-.6-.05c-.52,0-.91,.17-1.17,.5-.27,.33-.4,.81-.4,1.42,0,.28,.03,.53,.09,.76,.06,.23,.16,.43,.29,.59,.14,.17,.31,.29,.52,.39s.47,.14,.78,.14c.25,0,.46-.03,.63-.09,.17-.06,.29-.11,.37-.15l.13,.5c-.11,.06-.28,.12-.51,.18-.23,.06-.47,.08-.72,.08Z"/><path class="cls-1" d="M256.34,36.18c0,.37-.05,.7-.16,1-.11,.3-.25,.56-.44,.77s-.41,.37-.67,.49-.54,.18-.85,.18-.6-.06-.86-.18-.48-.28-.67-.49c-.19-.21-.34-.46-.44-.77-.1-.3-.16-.63-.16-1s.05-.7,.16-1c.11-.3,.25-.56,.44-.77,.19-.21,.41-.38,.67-.5,.26-.12,.54-.17,.86-.17s.6,.06,.85,.17c.26,.12,.48,.28,.67,.5s.34,.47,.44,.77c.1,.3,.16,.63,.16,1Zm-.62,0c0-.58-.13-1.04-.41-1.39-.27-.34-.64-.52-1.1-.52s-.83,.17-1.1,.52c-.27,.35-.41,.81-.41,1.39s.13,1.04,.41,1.39c.27,.34,.64,.51,1.1,.51s.83-.17,1.1-.51c.27-.34,.41-.8,.41-1.39Z"/><path class="cls-1" d="M257.61,34.01c.17-.05,.4-.1,.68-.16,.28-.06,.64-.09,1.08-.09,.59,0,1.01,.17,1.28,.51,.03-.02,.09-.06,.17-.12,.09-.06,.2-.12,.33-.18,.13-.06,.29-.11,.46-.15s.37-.06,.59-.06c.35,0,.64,.05,.86,.16,.22,.11,.39,.25,.51,.44s.2,.42,.24,.68,.06,.55,.06,.86v2.6h-.58v-2.41c0-.31-.01-.57-.04-.8-.03-.22-.08-.41-.16-.56-.08-.15-.2-.26-.35-.33-.15-.08-.34-.11-.58-.11-.18,0-.34,.02-.49,.05-.15,.03-.27,.07-.38,.12s-.2,.1-.27,.14c-.07,.05-.12,.08-.15,.11,.05,.16,.09,.33,.12,.53,.03,.2,.04,.4,.04,.62v2.65h-.58v-2.41c0-.31-.01-.57-.04-.8-.03-.22-.08-.41-.17-.56-.08-.15-.2-.26-.36-.33s-.36-.11-.61-.11c-.28,0-.52,.01-.72,.04s-.32,.06-.37,.08v4.09h-.58v-4.49Z"/><path class="cls-1" d="M266.21,38.12c0,.14-.04,.25-.13,.35s-.21,.14-.36,.14-.28-.05-.37-.14-.13-.21-.13-.35,.04-.25,.13-.35c.09-.1,.21-.14,.37-.14s.28,.05,.36,.14c.09,.1,.13,.21,.13,.35Z"/><path class="cls-1" d="M267.59,34.01c.17-.05,.4-.1,.68-.16,.28-.06,.64-.09,1.08-.09,.59,0,1.01,.17,1.28,.51,.03-.02,.09-.06,.17-.12,.09-.06,.2-.12,.33-.18,.13-.06,.29-.11,.46-.15s.37-.06,.59-.06c.35,0,.64,.05,.86,.16,.22,.11,.39,.25,.51,.44s.2,.42,.24,.68,.06,.55,.06,.86v2.6h-.58v-2.41c0-.31-.01-.57-.04-.8-.03-.22-.08-.41-.16-.56-.08-.15-.2-.26-.35-.33-.15-.08-.34-.11-.58-.11-.18,0-.34,.02-.49,.05-.15,.03-.27,.07-.38,.12s-.2,.1-.27,.14c-.07,.05-.12,.08-.15,.11,.05,.16,.09,.33,.12,.53,.03,.2,.04,.4,.04,.62v2.65h-.58v-2.41c0-.31-.01-.57-.04-.8-.03-.22-.08-.41-.17-.56-.08-.15-.2-.26-.36-.33s-.36-.11-.61-.11c-.28,0-.52,.01-.72,.04s-.32,.06-.37,.08v4.09h-.58v-4.49Z"/><path class="cls-1" d="M276.81,36.54c-.13,.16-.26,.32-.4,.49s-.26,.34-.38,.51c-.12,.17-.23,.34-.34,.51-.1,.17-.19,.32-.26,.46h-.61c.25-.46,.52-.88,.8-1.27,.28-.39,.57-.77,.86-1.14l-1.57-2.24h.68l1.22,1.76,1.21-1.76h.64l-1.54,2.21c.13,.16,.27,.34,.42,.53,.15,.19,.3,.39,.45,.6s.29,.42,.43,.64,.27,.44,.38,.66h-.63c-.07-.13-.16-.28-.26-.44-.1-.16-.22-.32-.34-.5-.12-.17-.25-.35-.39-.53-.14-.18-.27-.35-.39-.51Z"/></g></svg>